<svg width="0" height="0" class="hidden">
  <symbol xmlns="http://www.w3.org/2000/svg" viewBox="0 0 23 24" fill="none" id="close">
    <path d="M2 22L21.3333 2" stroke="black" stroke-width="4"/>
    <path d="M21.334 22L2.00065 2" stroke="black" stroke-width="4"/>
  </symbol>

  <symbol xmlns="http://www.w3.org/2000/svg" viewBox="0 0 137 33" id="logo">
    <path d="M26.2801 27H18.8801L17.9201 24.8H8.44008L7.48008 27H0.0800781L12.0801 0.119995H14.2801L26.2801 27ZM10.8801 19.28H15.4801L13.2001 13.2L10.8801 19.28Z" />
    <path d="M35.8873 12.56L44.6073 0.599996H52.6073L43.5273 13.16L54.0873 27H45.9273L35.8873 13.84V27H29.0073V0.599996H35.8873V12.56Z" />
    <path d="M79.4198 20.8H83.1398V32.64H76.2598V27H56.8198V0.599996H63.6998V20.8H72.5398V0.599996H79.4198V20.8Z" />
    <path d="M110.385 27H103.505V13.24L88.7854 27.48H86.5854V0.599996H93.4654V14.24L108.185 0.119995H110.385V27Z" />
    <path d="M136.368 27H129.488V20.08H126.728H125.968L121.488 27H113.808L119.648 18C118.448 17.1467 117.501 16.0667 116.808 14.76C116.141 13.4533 115.808 11.96 115.808 10.28C115.808 8.81333 116.088 7.48 116.648 6.28C117.208 5.08 117.968 4.06666 118.928 3.24C119.915 2.38666 121.075 1.73333 122.408 1.28C123.741 0.826662 125.181 0.599996 126.728 0.599996H136.368V27ZM126.608 6.6C125.461 6.6 124.541 6.94666 123.848 7.64C123.155 8.33333 122.808 9.22666 122.808 10.32C122.808 11.44 123.155 12.3467 123.848 13.04C124.541 13.7333 125.461 14.08 126.608 14.08H129.488V6.6H126.608Z" />
  </symbol>

  <symbol xmlns="http://www.w3.org/2000/svg" id="tick" viewBox="0 0 24 24" fill="none">
    <path d="M7.38477 12.9003L10.1768 15.6923L16.6383 9.23077" stroke="#FCFCFC" stroke-width="2" stroke-linecap="round"/>
  </symbol>

  <symbol xmlns="http://www.w3.org/2000/svg" id="success" viewBox="0 0 126 126" fill="none">
    <path d="M42.25 65.525L54.4 77.675L82.75 49.325" stroke="black" stroke-width="3" stroke-linecap="round" stroke-linejoin="round"/>
    <path d="M62.5 104C84.8675 104 103 85.8675 103 63.5C103 41.1325 84.8675 23 62.5 23C40.1325 23 22 41.1325 22 63.5C22 85.8675 40.1325 104 62.5 104Z" stroke="black" stroke-width="3" stroke-linecap="round" stroke-linejoin="round"/>
  </symbol>
</svg>
